<svg viewBox="0 0 400 86" height="86" width="400" xmlns="http://www.w3.org/2000/svg"><g fill="none" fill-rule="evenodd"><path d="m0 70.9015257v-70.9015257h8.80892043v70.9015257zm44.1447035-49.3314841c13.9140902 0 23.3236189 10.0859917 23.3236189 24.7656033 0 17.8751734-12.5126711 25.6643551-24.1244299 25.6643551-13.0131779 0-23.2235174-9.5866852-23.2235174-24.8654646 0-16.0776699 10.7108464-25.5644938 24.0243284-25.5644938zm-.2002027 6.5908461c-10.310441 0-14.8150026 9.5866851-14.8150026 18.6740638 0 10.5852982 6.0060821 18.5742025 14.6147998 18.5742025 8.408515 0 14.7149012-7.889043 14.7149012-18.7739252 0-8.1886269-4.1041561-18.4743411-14.5146984-18.4743411zm67.6685252 34.4521497 1.50152 6.5908461c-2.302331 1.0984743-7.407501 2.7961165-13.9140898 2.7961165-14.6147998 0-24.1244298-9.8862691-24.1244298-24.665742 0-14.8793343 10.2103395-25.7642164 26.0263556-25.7642164 5.205271 0 9.809934 1.298197 12.212367 2.5963939l-2.002027 6.6907074c-2.102129-1.0984744-5.405474-2.29681-10.21034-2.29681-11.1112517 0-17.1173338 8.2884882-17.1173338 18.2746186 0 11.184466 7.2072985 18.0748959 16.8170298 18.0748959 5.005068 0 8.308414-1.1983356 10.810948-2.29681zm45.846427-21.370319v18.074896c0 4.1941748.200202 8.2884882.700709 11.5839113h-7.908008l-.700709-6.0915396h-.300305c-2.702737 3.7947296-7.908008 7.1900139-14.815002 7.1900139-9.809934 0-14.815003-6.89043-14.815003-13.8807212 0-11.6837726 10.410543-18.074896 29.129499-17.9750347v-.998613c0-3.8945909-1.101116-11.1844661-11.011151-11.0846047-4.604663 0-9.309427 1.2981969-12.712874 3.5950069l-2.002027-5.8918169c4.004055-2.4965326 9.910035-4.1941748 16.016219-4.1941748 14.815002 0 18.418652 10.0859917 18.418652 19.6726768zm-8.508617 13.3814147v-8.3883495c-9.609731-.1997226-20.52078 1.4979196-20.52078 10.8848821 0 5.7919557 3.803852 8.3883496 8.208312 8.3883496 6.406488 0 10.510644-3.9944522 11.912063-8.0887656.300304-.9986131.400405-1.9972261.400405-2.7961166zm22.723011 16.2773926v-70.9015257h8.80892v70.9015257zm32.432843 0h-8.80892v-48.3328711h8.80892zm11.311455-2.29681 2.102129-6.5908461c2.702737 1.5977809 7.3074 3.3952844 11.71186 3.3952844 6.306386 0 9.309427-3.0957005 9.309427-7.1900139 0-4.1941748-2.502534-6.3911235-8.909022-8.7877947-8.80892-3.1955618-12.913076-7.889043-12.913076-13.6809987 0-7.7891817 6.406487-14.1803051 16.716928-14.1803051 4.904967 0 9.209326 1.298197 11.811962 2.9958391l-2.102129 6.3911235c-1.901926-1.1983357-5.405474-2.8959778-9.910035-2.8959778-5.205272 0-8.00811 2.9958391-8.00811 6.590846 0 3.9944521 2.802838 5.7919556 9.109225 8.2884882 8.308413 3.0957004 12.712873 7.2898752 12.712873 14.4798891 0 8.5880721-6.706791 14.5797503-18.018246 14.5797503-5.305372 0-10.21034-1.3980583-13.613786-3.3952843zm44.945514-55.0235784 8.608718-2.5963939v11.5839112h12.612773v6.6907074h-12.612773v26.0638003c0 5.9916782 1.701723 9.3869625 6.60669 9.3869625 2.402433 0 3.803852-.1997226 5.10517-.5991678l.400406 6.6907074c-1.701724.5991678-4.404461 1.1983356-7.807907 1.1983356-4.104156 0-7.407501-1.3980583-9.50963-3.6948682-2.402433-2.6962552-3.403447-6.9902913-3.403447-12.6823856v-26.3633842h-7.507602v-6.6907074h7.507602zm78.574506 57.3203884v-33.2538142c0-5.6920943-.100101-10.5852982-.400405-15.0790569h7.707805l.400406 9.5866852h.300304c2.20223-6.4909847 7.607704-10.5852982 13.513684-10.5852982.900913 0 1.601622.0998613 2.402433.1997226v8.2884882c-.900912-.1997226-1.801824-.1997226-3.003041-.1997226-6.206285 0-10.610745 4.59362-11.811961 11.184466-.200203 1.1983357-.300304 2.6962552-.300304 4.0943135v25.7642164zm29.429803-2.29681 2.102128-6.5908461c2.702737 1.5977809 7.3074 3.3952844 11.71186 3.3952844 6.306387 0 9.309428-3.0957005 9.309428-7.1900139 0-4.1941748-2.502535-6.3911235-8.909022-8.7877947-8.808921-3.1955618-12.913077-7.889043-12.913077-13.6809987 0-7.7891817 6.406488-14.1803051 16.716929-14.1803051 4.904967 0 9.209326 1.298197 11.811961 2.9958391l-2.102128 6.3911235c-1.901926-1.1983357-5.405474-2.8959778-9.910036-2.8959778-5.205271 0-8.008109 2.9958391-8.008109 6.590846 0 3.9944521 2.802838 5.7919556 9.109224 8.2884882 8.308414 3.0957004 12.712874 7.2898752 12.712874 14.4798891 0 8.5880721-6.706792 14.5797503-18.018246 14.5797503-5.305373 0-10.21034-1.3980583-13.613786-3.3952843z" fill="#0e5f69"/><g fill="#fca82a"><path d="m199.550459 3c3.229358 0 5.449541 2.42201835 5.449541 5.55045872 0 3.02752298-2.119266 5.44954128-5.651376 5.44954128-3.229358 0-5.348624-2.4220183-5.348624-5.44954128 0-3.02752294 2.220183-5.55045872 5.550459-5.55045872z"/><path d="m0 86v-8.0500467h283.348306c.435055 0 .820193-.2830403.952578-.7000566l17.125917-53.9469523c1.512521-4.7644674 6.577013-7.3930206 11.31186-5.871038 2.774326.8917874 4.948295 3.0793556 5.834538 5.871038l17.125917 53.9469523c.132385.4170163.517523.7000566.952578.7000566h63.348306v8.0500467h-63.348306c-3.915495 0-7.381731-2.547363-8.573199-6.3005092l-17.125917-53.9469524c-.098472-.3101869-.340024-.55325-.648282-.6523375-.526094-.1691092-1.088816.1229523-1.256874.6523375l-17.125917 53.9469524c-1.191468 3.7531462-4.657704 6.3005092-8.573199 6.3005092z" fill-rule="nonzero"/></g></g></svg>