<svg enable-background="new 0 0 738.336 217" viewBox="0 0 738.336 217" height="217" width="738" xmlns="http://www.w3.org/2000/svg" xmlns:xlink="http://www.w3.org/1999/xlink"><clipPath id="a"><circle cx="201.619" cy="108.951" r="67.119"/></clipPath><clipPath id="b"><path d="m414 40.695h81.977v136.096h-81.977z"/></clipPath><clipPath id="c"><path d="m414 40.695h81.977v136.096h-81.977z"/></clipPath><g clip-path="url(#a)" fill="#3fa9f5"><path d="m142.926 73.62c-.766 5.554 1.148 8.427 0 11.107-1.149 2.681-2.49 7.469-1.341 10.724 1.148 3.256 2.872 10.341 4.404 10.533 1.532.19-1.148-7.66.383-5.171 1.533 2.49 1.533 6.194 4.214 8.746 2.681 2.553 6.32 2.17 9.192 4.659 2.872 2.49 5.744 6.129 8.426 5.746 0 0-.192 1.915-1.533 5.17-1.34 3.255-1.532 7.084.192 9.383 1.723 2.298 3.447 5.746 4.979 7.469 1.532 1.724 2.681 10.915 2.298 15.511s1.723 14.937 6.51 17.235c4.788 2.298 0-1.149-.957-4.021-.958-2.872.739-9.575 3.052-10.533 2.31-.958 4.417-4.787 6.14-7.469 1.723-2.681 6.128-3.83 7.469-7.084 1.341-3.256.766-7.085 1.532-8.81.766-1.724 2.873-5.554-1.724-7.852-4.595-2.297-6.51-1.148-6.703-3.255-.191-2.106-1.34-4.404-4.595-5.361-3.256-.958-6.129-2.817-9.768-3.228s-4.404 2.462-6.319.929c-1.915-1.532-3.446-3.065-4.213-4.979-.766-1.915-3.064-.766-2.872-1.915.19-1.149 3.254-4.404-.192-3.255s-6.51.766-6.319-2.297c.193-3.064 4.405-4.214 6.129-4.597 1.723-.383 3.063 1.724 5.17 3.065 2.106 1.34.191-1.915 1.34-4.213s5.554-2.106 6.128-5.361c.575-3.255-.191-5.937 3.256-6.32 3.446-.383 7.084.191 7.468-1.533.383-1.723-4.022.575-4.213-1.532-.192-2.106 3.83-4.978 4.979-2.872s4.021 2.298 4.405 1.532c.383-.766 0-2.105-1.341-5.361-1.34-3.256-2.681-2.298-3.83-5.937-1.149-3.638-3.064.191-4.979-1.724-1.916-1.915-4.213-5.937-4.597-2.489-.383 3.447-.383 5.361-2.105 8.042-1.724 2.682-2.489.575-4.021-1.149-1.532-1.723-4.979-3.446-3.831-4.978 1.149-1.532 2.298-5.553 4.021-4.404 1.724 1.149 4.405 1.149 4.021-.767-.383-1.915 0-2.681.766-3.639s3.447-2.681 3.447.767c0 3.446-.384 4.404 2.298 4.788 2.681.383 5.744.574 5.554-1.149-.192-1.724.766-1.341 0-4.214-.767-2.872-3.064-3.063-5.554-4.404-2.489-1.34-3.831-3.446-5.937-2.681-2.106.766-2.299 1.532-2.489 3.639-.192 2.107-1.341 2.873-2.107 1.915s.192-4.022-2.681-2.106c-2.873 1.915-4.021 5.171-5.553 2.872-1.533-2.297 2.297-6.319-1.724-4.595-4.022 1.723-6.895 3.638-4.788 4.404s4.213 2.107 2.107 2.873c-2.107.766-6.32-.575-7.852.957-1.53 1.529-5.742 9.189-5.742 9.189z"/><path d="m165.522 52.939c-.01 2.141.575 3.829 2.49 1.915 1.915-1.915 3.063-4.212 4.405-3.256 1.34.958 3.639.704 4.595.639.958-.064 1.15-2.937 3.831-2.554s1.724-.574 4.595-2.107c2.873-1.532 9.001-4.212 2.681-3.446-6.319.766-6.703-.958-11.107 1.915-4.403 2.873-5.36 2.873-6.509 3.639s-2.49-2.298-4.022 0c-1.534 2.296-.948 1.073-.959 3.255z"/><path d="m188.501 47.002c-2.263 1.956-5.744 4.788-3.064 4.788 2.681 0 3.983-1.404 5.439.447s.88 4.723.88 6.063-.766 4.405 1.149 8.235c1.916 3.829 2.106 6.319 4.022 3.829 1.915-2.489 6.51-7.276 8.808-7.659 2.298-.384 4.597-1.341 5.746-3.256 1.148-1.916 0-3.773 1.915-5.142s1.531-3.093 2.107-5.199c.573-2.107 5.745-2.107 3.446-3.255-2.298-1.149-6.51-1.916-11.49-1.341-4.978.575-14.744-1.148-18.958 2.49z"/><path d="m167.438 106.174c-1.218 1.987-.575 2.107.766 2.49 1.34.383-.575 2.68.957 2.872s4.979 1.149 5.936 0c.958-1.148-1.531-.701-3.255-1.978-1.723-1.277-3.539-4.795-4.404-3.384z"/><path d="m260.122 137.388c-2.062 1.033-1.149 2.682-3.064 3.831-1.915 1.148-1.148 1.531-1.723 4.213-.576 2.68.191 4.212 1.532 2.106 1.34-2.106 5.552-11.299 3.255-10.15z"/><path d="m271.037 105.218c-.574-3.256-4.787-32.747-4.787-32.747s-11.298-7.277-13.212-5.746c-1.916 1.533-5.172 1.301-4.788-.21.383-1.512 2.872-1.128-1.341-4.002-4.213-2.873-4.979-5.362-8.233-1.724-3.256 3.639-4.022 6.703-5.938 7.66s-3.447 4.021-1.34 4.787c2.106.766 2.297 0 4.021 1.532s4.022 1.148 4.405.192c.383-.958.766-4.021.957-5.171.192-1.149 2.139-4.979 1.931-1.915-.207 3.064 2.665 3.064.75 5.17s-.767 3.831-4.596 4.213-4.021-1.915-6.128-.766c-2.106 1.148-1.916 1.915-2.681 3.063-.766 1.149-4.788 3.447-4.788 3.447s-3.255-1.149-1.723.958c1.533 2.106 2.873 4.596 1.533 4.787-1.341.192-4.98-1.915-4.98.384 0 2.297-.574 4.787.958 5.362 1.082.405 1.783 1.283 2.776 1.161-.769.332-1.469.813-2.01 1.52-1.49 1.948-.574 5.362-3.638 6.511-3.063 1.15-3.063 2.489-3.639 4.979-.573 2.489 0 8.809.766 9.383s2.107 5.362 5.362 4.979c3.256-.383 6.703-.531 7.851.022 1.149.552 3.064-1.17 3.639 3.233.574 4.404 1.915 4.979 2.681 7.277.766 2.297-.383 7.086 0 9.958s3.064 7.852 3.064 10.341c0 2.488 2.872 3.638 4.404 2.681 1.533-.958 4.788-2.873 6.127-5.937 1.341-3.063 1.341-4.596 3.448-8.617 2.106-4.021 1.533-6.895 2.489-9.958.958-3.064 3.262-5.17 6.418-8.617 3.156-3.446 2.588-5.362 0-5.17-2.587.191-4.314-2.298-5.653-5.362-1.338-3.064-2.871-10.723-1.721-8.234 1.149 2.49 3.446 9.384 5.744 10.533s6.512-1.952 7.469-3.083c.958-1.131.575-4.386-1.916-5.726-2.489-1.341-.956-2.49 1.533-.958 2.487 1.532 5.36 3.064 4.786-.19zm-20.299-8.235c-.191 1.531.575 4.021-3.639 3.064-4.213-.958-4.213-3.256-5.936-1.533-1.723 1.724-3.83 3.256-6.32.575-2.489-2.681-2.106-3.447-3.446-3.639-.955-.135-4.138-.846-6.792-.074.207-.123.427-.285.664-.5 1.916-1.724 1.533-2.298 3.639-4.213 2.107-1.916 3.639-3.638 5.17-1.916 1.532 1.725 4.788 2.108 3.639 4.022s-.383 3.063.958 1.915c1.339-1.149 3.254-1.915 1.915-3.446-1.341-1.532-2.681-5.554-.766-2.874 1.915 2.681 2.489 4.022 3.638 5.554s2.298 2.49 2.681 1.532c.383-.957-.191-3.063.383-3.446.575-.383 0 3.255 1.724 3.446 1.722.192 2.679 0 2.488 1.533zm4.403-6.51c-1.341-.766-3.828 0-6.892.956-3.065.958-.613-2.13.766-4.212 1.233-1.861.574.574 3.256.766 2.681.191 4.212 3.255 2.87 2.49zm6.704 5.935c-.575.575-1.532-2.681-2.106-4.213-.575-1.532-.56-4.195 1.056-5.675 2.014-1.847 1.05 2.419 1.05 4.718 0 2.298.574 4.595 0 5.17z"/><path d="m224.886 73.045c-1.173.353-2.106 2.681-1.532 3.831.576 1.149-.574-.575-2.105.383-1.533.957-3.809 3.639-1.713 3.829 2.096.192 1.713-1.532 3.628-.766s4.021.575 4.021-1.34c-.001-1.916-.384-6.511-2.299-5.937z"/><path d="m212.439 64.237c-1.154.165-1.533 3.064.957 3.447s6.948-.575 5.292-2.107c-1.653-1.532-3.567-1.723-6.249-1.34z"/></g><circle cx="201.928" cy="109.814" fill="none" r="66.51" stroke="#3fa9f5" stroke-miterlimit="10" stroke-width="8"/><g fill="#3fa9f5"><path clip-path="url(#b)" d="m483.84 52.513c-7.966-7.879-17.614-11.818-28.944-11.818-11.331 0-20.979 3.939-28.945 11.818-7.968 7.877-11.951 17.393-11.951 28.547 0 6.727 3.408 17.969 10.225 33.725 6.814 15.756 13.631 30.096 20.446 43.02 6.816 12.924 10.225 19.208 10.225 18.854 1.062-1.947 2.522-4.604 4.381-7.967s5.135-9.693 9.826-18.988c4.691-9.294 8.809-17.835 12.348-25.625 3.542-7.79 6.817-15.846 9.826-24.166 3.01-8.321 4.514-14.605 4.514-18.854-.001-11.153-3.984-20.669-11.951-28.546zm-20.181 37.044c-2.479 2.479-5.444 3.717-8.896 3.717-3.453 0-6.418-1.238-8.896-3.717-2.478-2.478-3.717-5.443-3.717-8.896 0-3.452 1.239-6.373 3.717-8.763 2.479-2.39 5.443-3.585 8.896-3.585 3.452 0 6.417 1.195 8.896 3.585 2.478 2.39 3.718 5.311 3.718 8.763s-1.24 6.418-3.718 8.896zm0 0"/><path clip-path="url(#c)" d="m483.84 52.513c-7.966-7.879-17.614-11.818-28.944-11.818-11.331 0-20.979 3.939-28.945 11.818-7.968 7.877-11.951 17.393-11.951 28.547 0 6.727 3.408 17.969 10.225 33.725 6.814 15.756 13.631 30.096 20.446 43.02 6.816 12.924 10.225 19.208 10.225 18.854 1.062-1.947 2.522-4.604 4.381-7.967s5.135-9.693 9.826-18.988c4.691-9.294 8.809-17.835 12.348-25.625 3.542-7.79 6.817-15.846 9.826-24.166 3.01-8.321 4.514-14.605 4.514-18.854-.001-11.153-3.984-20.669-11.951-28.546zm-20.181 37.044c-2.479 2.479-5.444 3.717-8.896 3.717-3.453 0-6.418-1.238-8.896-3.717-2.478-2.478-3.717-5.443-3.717-8.896 0-3.452 1.239-6.373 3.717-8.763 2.479-2.39 5.443-3.585 8.896-3.585 3.452 0 6.417 1.195 8.896 3.585 2.478 2.39 3.718 5.311 3.718 8.763s-1.24 6.418-3.718 8.896zm0 0"/><path d="m36.726 41.202h16.856v120.198h55.802v14.6h-72.658z"/><path d="m394.398 170.6c-6.4 3.2-19.2 6.4-35.6 6.4-38 0-66.599-24-66.599-68.199 0-42.199 28.6-70.799 70.399-70.799 16.8 0 27.399 3.6 31.999 6l-4.199 14.2c-6.6-3.2-16-5.6-27.2-5.6-31.6 0-52.599 20.2-52.599 55.599 0 33 19 54.199 51.799 54.199 10.6 0 21.399-2.2 28.4-5.6z"/><path d="m509 165.801 74.799-109.399v-.6h-68.399v-14.6h90.998v10.6l-74.398 108.999v.6h75.398v14.599h-98.398z"/><path d="m698.598 112.801h-52.399v48.6h58.399v14.599h-75.799v-134.798h72.799v14.6h-55.399v42.6h52.399z"/></g></svg>